<svg width="155" height="81" viewBox="0 0 155 81" fill="none" xmlns="http://www.w3.org/2000/svg">
<path d="M8.38436 12.9224C10.1089 8.58279 14.3001 5.5183 19.2043 5.5183C20.5696 5.5183 21.8782 5.75217 23.095 6.19579V0.348955C21.9093 0.118794 20.6888 0 19.4407 0C11.1407 0 4.05564 5.26958 1.27001 12.6849C0.557112 14.5688 0.130104 16.5679 0.0256433 18.6802C0.0238106 18.6969 0.0219778 18.7247 0.0183125 18.7489C0.0164799 18.812 0.0164795 18.8695 0.0164795 18.9363C0.426993 19.1034 0.832009 19.2853 1.23153 19.4727V63.1941C1.23153 67.0883 3.99516 69.8929 6.81378 68.9017C16.1969 65.5996 23.1427 54.177 23.1427 40.5919C23.1427 27.7771 16.9612 16.889 8.38436 12.9224Z" fill="#E74B3C"/>
<path d="M20.5825 12.1744V29.0151C25.1659 29.0151 28.8972 25.2453 28.8972 20.5938C28.8954 15.9442 25.1641 12.1744 20.5825 12.1744Z" fill="#333333"/>
<path d="M38.876 19.6862C38.876 25.0393 36.7666 29.8912 33.3414 33.4402C33.3322 33.4513 33.3249 33.4625 33.3139 33.4717C33.0335 33.752 32.6431 33.9246 32.2161 33.9246C31.9614 33.9246 31.7231 33.8634 31.5106 33.7539C31.5985 33.6202 31.6865 33.4847 31.7726 33.3474C32.2436 32.5919 32.6651 31.7994 33.0262 30.9734C34.0378 28.6662 34.6004 26.1159 34.6004 23.43C34.6004 16.373 30.7189 10.231 24.9955 7.08117C24.9863 7.07375 24.9827 7.07004 24.9735 7.07004C24.5208 6.82688 24.0627 6.59486 23.5844 6.38883C23.4249 6.31644 23.26 6.25519 23.0932 6.19765V0.350815C32.0787 2.07888 38.876 10.0788 38.876 19.6862Z" fill="#FFE54D"/>
<path d="M34.6004 23.4263C34.6004 26.1122 34.0378 28.6643 33.0262 30.9697C32.6651 31.7956 32.2436 32.5882 31.7726 33.3437C31.6865 33.481 31.6004 33.6184 31.5106 33.7502C30.9974 33.4903 30.6455 32.9502 30.6455 32.3284C30.6455 32.3191 30.6455 32.3079 30.6474 32.2968C30.6474 32.2857 30.6474 32.2745 30.6492 32.2652C30.6529 32.2207 30.6565 32.178 30.6584 32.1353C30.673 31.9311 30.6804 31.7288 30.6804 31.5228C30.6804 29.1358 29.7585 26.9697 28.2558 25.3641C28.1678 25.2676 28.0743 25.1729 27.9809 25.082C26.742 23.8569 25.1384 23.005 23.3644 22.695C23.2765 22.6783 23.1867 22.6672 23.0969 22.6486V6.19208C23.2636 6.24962 23.4286 6.31087 23.588 6.38326C24.0663 6.58929 24.5245 6.8213 24.9772 7.06446C24.9863 7.06446 24.99 7.06818 24.9992 7.0756C30.7189 10.2273 34.6004 16.3693 34.6004 23.4263Z" fill="#E8BD3A"/>
<path d="M23.0951 6.1958V22.6542C22.9906 22.6375 22.9485 22.6338 22.8495 22.6282L22.7799 22.6263C21.6784 22.6263 20.8226 23.534 20.8226 24.6477V29.0133C20.2948 29.095 19.7542 29.1302 19.2062 29.1302C18.1249 29.1302 17.0803 28.9799 16.0889 28.7015C15.792 28.6198 15.5042 28.527 15.2202 28.4212C14.7272 28.243 14.2562 28.0277 13.7999 27.7845C12.1542 26.9121 10.743 25.6518 9.67824 24.1242C8.33674 22.2031 7.54871 19.8551 7.54871 17.3215C7.54871 10.8027 12.7681 5.51645 19.208 5.51645C20.5678 5.51831 21.8782 5.75218 23.0951 6.1958Z" fill="white"/>
<path d="M19.3949 47.2387C19.3711 45.9765 19.2666 44.7329 19.0962 43.5153H19.0907C19.0174 42.9436 18.9184 42.3775 18.8066 41.8206C18.7627 41.5868 18.7187 41.3585 18.6637 41.1302C18.0791 38.4759 17.1609 35.9497 15.9587 33.598C14.192 30.1381 11.7968 27.0495 8.93417 24.4992C8.82604 24.3989 8.72341 24.3061 8.61528 24.2152C6.0734 22.0082 3.17598 20.2171 0.0201593 18.9345C0.00549806 19.237 0 19.5451 0 19.8551V36.2559V76.0293V76.9945C0.0293224 76.9833 0.058644 76.9703 0.0879664 76.9573C0.520472 79.2515 2.52172 81 4.90967 81C7.60916 81 9.81934 78.7634 9.81934 76.0274V70.6019C11.28 69.1931 12.605 67.6432 13.7705 65.9708C17.3204 60.8795 19.4059 54.6651 19.4059 47.9589C19.4059 47.9533 19.4059 47.9533 19.4059 47.9496C19.4041 47.712 19.4004 47.4726 19.3949 47.2387Z" fill="#872C23"/>
<path d="M20.3992 10.3368C20.7621 10.7044 21.2239 10.6134 21.4072 10.129C21.6949 9.36423 21.5172 8.46029 20.8757 7.86447C20.1042 7.148 18.8873 7.148 18.1158 7.86447C17.4743 8.46029 17.2984 9.36237 17.5843 10.129C17.7657 10.6153 18.2294 10.7044 18.5922 10.3368L19.0596 9.86353C19.2996 9.62037 19.69 9.62037 19.9301 9.86353L20.3992 10.3368Z" fill="#333333"/>
<path d="M30.0683 58.1714C29.2436 58.1714 28.494 57.9635 27.8215 57.544C27.1489 57.1264 26.6101 56.5658 26.2051 55.8605C25.8 55.157 25.5984 54.37 25.5984 53.5032V46.1436C25.5984 45.3083 25.8 44.538 26.2051 43.8327C26.6101 43.1292 27.1525 42.5668 27.8324 42.1492C28.5124 41.7316 29.2582 41.5218 30.0683 41.5218C30.9095 41.5218 31.67 41.7279 32.3499 42.1381C33.0298 42.5483 33.5686 43.1014 33.9663 43.7974C34.364 44.4935 34.5619 45.2749 34.5619 46.1417V47.209C34.5619 47.2703 34.5235 47.3018 34.4465 47.3018H31.8789C31.8185 47.3018 31.7873 47.2703 31.7873 47.209V46.3274C31.7873 45.739 31.6224 45.2508 31.2943 44.8647C30.9663 44.4786 30.5576 44.2838 30.0683 44.2838C29.6248 44.2838 29.2308 44.4694 28.8881 44.8406C28.5435 45.2118 28.3731 45.6462 28.3731 46.1417V53.5013C28.3731 54.0118 28.5417 54.4498 28.8771 54.8136C29.2124 55.1774 29.6101 55.3593 30.0683 55.3593C30.5576 55.3593 30.9663 55.1811 31.2943 54.8248C31.6224 54.4684 31.7873 54.0285 31.7873 53.5013V52.3635H30.1819C30.1049 52.3635 30.0664 52.3245 30.0664 52.2466V49.6461C30.0664 49.5682 30.1049 49.5292 30.1819 49.5292H34.4685C34.5289 49.5292 34.5601 49.5682 34.5601 49.6461V53.5013C34.5601 54.3681 34.3567 55.1533 33.9535 55.8586C33.5485 56.564 33.0097 57.1245 32.3371 57.5421C31.6645 57.9616 30.9076 58.1714 30.0683 58.1714Z" fill="#B43A2F"/>
<path d="M40.5437 58.1714C39.7337 58.1714 38.9841 57.9579 38.2969 57.5329C37.6096 57.1078 37.0617 56.538 36.6585 55.8271C36.2535 55.1162 36.0519 54.3329 36.0519 53.4828L36.0977 41.8745C36.0977 41.8132 36.1289 41.7817 36.1893 41.7817H38.7569C38.8173 41.7817 38.8485 41.8132 38.8485 41.8745V53.4828C38.8485 54.0099 39.0116 54.4535 39.3415 54.8173C39.6695 55.1811 40.0709 55.363 40.5455 55.363C41.0349 55.363 41.4435 55.1811 41.7716 54.8173C42.0996 54.4535 42.2646 54.0081 42.2646 53.4828V41.8745C42.2646 41.8132 42.2957 41.7817 42.3562 41.7817H44.9237C44.9842 41.7817 45.0154 41.8132 45.0154 41.8745L45.0612 53.4828C45.0612 54.3496 44.8578 55.1384 44.4546 55.8512C44.0496 56.564 43.5071 57.1282 42.8272 57.5459C42.1454 57.9616 41.3849 58.1714 40.5437 58.1714Z" fill="#B43A2F"/>
<path d="M45.7246 57.8224L48.567 41.8708C48.5817 41.8095 48.6202 41.778 48.6825 41.778H52.0069C52.0674 41.778 52.1059 41.8095 52.1224 41.8708L54.8512 57.8224C54.8659 57.9004 54.8365 57.9393 54.7596 57.9393H52.214C52.1535 57.9393 52.1151 57.9004 52.0986 57.8224L51.8457 56.1278H48.7283L48.4754 57.8224C48.4608 57.9004 48.4223 57.9393 48.36 57.9393H45.8162C45.7558 57.9393 45.7246 57.9004 45.7246 57.8224ZM49.1865 53.6442H51.3875L50.4473 47.1199L50.3099 46.2605L50.2183 47.1199L49.1865 53.6442Z" fill="#B43A2F"/>
<path d="M56.3852 57.9393C56.3247 57.9393 56.2935 57.9004 56.2935 57.8224L56.3393 41.8949C56.3393 41.8169 56.3705 41.778 56.431 41.778H58.9985C59.059 41.778 59.0901 41.8169 59.0901 41.8949V47.3983L62.6895 41.8726C62.7353 41.8114 62.7884 41.7798 62.8507 41.7798H65.4861C65.5466 41.7798 65.5631 41.8114 65.5319 41.8726L61.566 48.28L66.0139 57.8465C66.045 57.9078 66.0066 57.9393 65.8984 57.9393H63.1018C63.0248 57.9393 62.979 57.9078 62.9644 57.8465L59.869 51.0197L59.0663 52.2967V57.8224C59.0663 57.9004 59.0352 57.9393 58.9747 57.9393H56.3852Z" fill="#B43A2F"/>
<path d="M66.265 57.8224L69.1074 41.8708C69.1221 41.8095 69.1605 41.778 69.2228 41.778H72.5473C72.6077 41.778 72.6462 41.8095 72.6627 41.8708L75.3915 57.8224C75.4062 57.9004 75.3769 57.9393 75.2999 57.9393H72.7544C72.6939 57.9393 72.6554 57.9004 72.6389 57.8224L72.386 56.1278H69.2687L69.0158 57.8224C69.0011 57.9004 68.9626 57.9393 68.9003 57.9393H66.3566C66.2943 57.9393 66.265 57.9004 66.265 57.8224ZM69.7268 53.6442H71.9278L70.9877 47.1199L70.8502 46.2605L70.7586 47.1199L69.7268 53.6442Z" fill="#B43A2F"/>
<path d="M76.9237 57.9393C76.8632 57.9393 76.832 57.9004 76.832 57.8224L76.8778 41.8708C76.8778 41.8095 76.909 41.778 76.9695 41.778H79.7661C79.8266 41.778 79.8816 41.8095 79.9274 41.8708L82.0129 44.9352L84.0985 41.8726C84.1443 41.8114 84.1974 41.7798 84.2579 41.7798H87.0784C87.1388 41.7798 87.17 41.8114 87.17 41.8726L87.2158 57.8243C87.2158 57.9022 87.1847 57.9412 87.1242 57.9412H84.5328C84.4723 57.9412 84.4412 57.9022 84.4412 57.8243L84.4174 45.984L82.0111 49.5125L79.6268 45.984L79.6048 57.8243C79.6048 57.9022 79.5737 57.9412 79.5132 57.9412H76.9237V57.9393Z" fill="#B43A2F"/>
<path d="M88.363 57.8224L91.2055 41.8708C91.2201 41.8095 91.2586 41.778 91.3191 41.778H94.6435C94.704 41.778 94.7425 41.8095 94.7571 41.8708L97.486 57.8224C97.5006 57.9004 97.4713 57.9393 97.3943 57.9393H94.8488C94.7883 57.9393 94.7498 57.9004 94.7352 57.8224L94.4822 56.1278H91.3649L91.112 57.8224C91.0974 57.9004 91.0589 57.9393 90.9966 57.9393H88.451C88.3924 57.9393 88.363 57.9004 88.363 57.8224ZM91.8249 53.6442H94.0259L93.0858 47.1199L92.9483 46.2605L92.8567 47.1199L91.8249 53.6442Z" fill="#B43A2F"/>
<path d="M100.053 57.9394C100.008 57.9394 99.9838 57.9078 99.9838 57.8465L100.008 51.2535L96.9361 41.8726C96.9215 41.8114 96.9435 41.7798 97.004 41.7798H99.5495C99.6265 41.7798 99.6723 41.8114 99.687 41.8726L101.384 48.1185L103.103 41.8726C103.118 41.8114 103.156 41.7798 103.218 41.7798H105.786C105.846 41.7798 105.87 41.8114 105.856 41.8726L102.76 51.1607L102.784 57.8484C102.784 57.9097 102.753 57.9412 102.693 57.9412H100.053V57.9394Z" fill="#B43A2F"/>
<path d="M105.051 57.8224L107.894 41.8708C107.908 41.8095 107.947 41.778 108.009 41.778H111.333C111.394 41.778 111.432 41.8095 111.449 41.8708L114.178 57.8224C114.192 57.9004 114.163 57.9393 114.086 57.9393H111.542C111.482 57.9393 111.443 57.9004 111.427 57.8224L111.174 56.1278H108.057L107.804 57.8224C107.789 57.9004 107.751 57.9393 107.688 57.9393H105.143C105.082 57.9393 105.051 57.9004 105.051 57.8224ZM108.513 53.6442H110.714L109.774 47.1199L109.636 46.2605L109.545 47.1199L108.513 53.6442Z" fill="#B43A2F"/>
<path d="M116.329 57.9393C116.252 57.9393 116.214 57.9004 116.214 57.8224L116.26 41.8708C116.26 41.8095 116.291 41.778 116.351 41.778H123.687C123.764 41.778 123.801 41.8095 123.801 41.8708V44.4953C123.801 44.5566 123.77 44.5881 123.709 44.5881H119.01V48.1872H123.709C123.77 48.1872 123.801 48.2262 123.801 48.3023L123.825 50.9269C123.825 50.9881 123.786 51.0197 123.709 51.0197H119.01V57.8224C119.01 57.9004 118.972 57.9393 118.897 57.9393H116.329Z" fill="#333333"/>
<path d="M129.281 58.1714C128.456 58.1714 127.703 57.9579 127.023 57.5329C126.343 57.1078 125.797 56.5417 125.384 55.8382C124.972 55.1347 124.765 54.357 124.765 53.505L124.789 46.1454C124.789 45.2935 124.99 44.5195 125.395 43.8234C125.8 43.1274 126.347 42.5705 127.034 42.151C127.721 41.7334 128.471 41.5237 129.281 41.5237C130.105 41.5237 130.855 41.7334 131.527 42.151C132.2 42.5687 132.739 43.1255 133.144 43.8234C133.549 44.5195 133.75 45.2935 133.75 46.1454L133.774 53.505C133.774 54.357 133.571 55.1347 133.166 55.8382C132.761 56.5417 132.218 57.1078 131.538 57.5329C130.859 57.9579 130.107 58.1714 129.281 58.1714ZM129.281 55.3612C129.739 55.3612 130.14 55.1718 130.485 54.7932C130.829 54.4145 131.001 53.9839 131.001 53.505L130.978 46.1454C130.978 45.635 130.816 45.2007 130.496 44.8443C130.175 44.4879 129.77 44.3097 129.281 44.3097C128.806 44.3097 128.401 44.4842 128.066 44.8313C127.728 45.1803 127.562 45.6165 127.562 46.1436V53.5032C127.562 54.0136 127.73 54.4517 128.066 54.8155C128.403 55.1811 128.808 55.3612 129.281 55.3612Z" fill="#333333"/>
<path d="M139.758 58.1714C138.933 58.1714 138.18 57.9579 137.5 57.5329C136.82 57.1078 136.274 56.5417 135.862 55.8382C135.449 55.1347 135.242 54.357 135.242 53.505L135.266 46.1454C135.266 45.2935 135.468 44.5195 135.873 43.8234C136.278 43.1274 136.824 42.5705 137.511 42.151C138.198 41.7334 138.948 41.5237 139.758 41.5237C140.583 41.5237 141.332 41.7334 142.005 42.151C142.677 42.5687 143.216 43.1255 143.621 43.8234C144.026 44.5195 144.228 45.2935 144.228 46.1454L144.251 53.505C144.251 54.357 144.048 55.1347 143.643 55.8382C143.238 56.5417 142.696 57.1078 142.016 57.5329C141.336 57.9579 140.583 58.1714 139.758 58.1714ZM139.758 55.3612C140.216 55.3612 140.617 55.1718 140.962 54.7932C141.306 54.4145 141.479 53.9839 141.479 53.505L141.455 46.1454C141.455 45.635 141.294 45.2007 140.973 44.8443C140.652 44.4879 140.247 44.3097 139.758 44.3097C139.283 44.3097 138.878 44.4842 138.543 44.8313C138.206 45.1803 138.039 45.6165 138.039 46.1436V53.5032C138.039 54.0136 138.207 54.4517 138.543 54.8155C138.878 55.1811 139.283 55.3612 139.758 55.3612Z" fill="#333333"/>
<path d="M146.106 57.9393C146.029 57.9393 145.991 57.9004 145.991 57.8224L146.037 41.8708C146.037 41.8095 146.068 41.778 146.128 41.778L150.415 41.7557C151.256 41.7408 152.024 41.9413 152.718 42.3589C153.413 42.7766 153.968 43.3371 154.381 44.0424C154.793 44.7478 155 45.5255 155 46.3756V53.0391C155 53.9375 154.786 54.7542 154.359 55.4892C153.93 56.2243 153.358 56.809 152.64 57.2433C151.921 57.6758 151.111 57.9004 150.209 57.9171L146.106 57.9393ZM148.789 55.0827H150.211C150.776 55.0827 151.254 54.8823 151.644 54.4795C152.035 54.0767 152.229 53.5978 152.229 53.0391V46.3515C152.229 45.8559 152.049 45.4271 151.69 45.0633C151.331 44.6995 150.908 44.525 150.418 44.5417L148.813 44.5659L148.789 55.0827Z" fill="#333333"/>
</svg>
